<svg width="347" height="184" viewBox="0 0 347 184" fill="none" xmlns="http://www.w3.org/2000/svg">
<path d="M253.2 117V103H257.82C258.573 103 259.25 103.183 259.85 103.55C260.457 103.917 260.937 104.413 261.29 105.04C261.65 105.66 261.83 106.353 261.83 107.12C261.83 107.9 261.647 108.603 261.28 109.23C260.92 109.85 260.433 110.343 259.82 110.71C259.213 111.07 258.547 111.25 257.82 111.25H254.88V117H253.2ZM254.88 109.57H257.67C258.123 109.57 258.537 109.46 258.91 109.24C259.29 109.013 259.59 108.71 259.81 108.33C260.037 107.943 260.15 107.51 260.15 107.03C260.15 106.543 260.037 106.11 259.81 105.73C259.59 105.343 259.29 105.04 258.91 104.82C258.537 104.593 258.123 104.48 257.67 104.48H254.88V109.57ZM263.805 117V103H268.725C269.472 103 270.145 103.183 270.745 103.55C271.352 103.917 271.832 104.413 272.185 105.04C272.545 105.66 272.725 106.353 272.725 107.12C272.725 107.793 272.592 108.407 272.325 108.96C272.059 109.513 271.692 109.977 271.225 110.35C270.765 110.717 270.242 110.97 269.655 111.11L273.055 117H271.115L267.775 111.25H265.485V117H263.805ZM265.485 109.57H268.555C269.009 109.57 269.425 109.46 269.805 109.24C270.185 109.013 270.485 108.71 270.705 108.33C270.932 107.943 271.045 107.51 271.045 107.03C271.045 106.543 270.932 106.11 270.705 105.73C270.485 105.343 270.185 105.04 269.805 104.82C269.425 104.593 269.009 104.48 268.555 104.48H265.485V109.57ZM275.368 117V103H283.958V104.68H277.048V108.66H282.708V110.34H277.048V115.32H283.958V117H275.368ZM286.266 117V103H294.476V104.68H287.946V108.66H293.516V110.34H287.946V117H286.266ZM295.993 117V103H304.583V104.68H297.673V108.66H303.333V110.34H297.673V115.32H304.583V117H295.993ZM307.191 117V103H308.871V117H307.191ZM322.169 103V104.68H317.509V117H315.829V104.68H311.179V103H322.169ZM329.876 117.26C328.929 117.26 328.039 117.073 327.206 116.7C326.372 116.32 325.639 115.797 325.006 115.13C324.372 114.463 323.876 113.693 323.516 112.82C323.156 111.94 322.976 111 322.976 110C322.976 109 323.156 108.063 323.516 107.19C323.876 106.31 324.372 105.537 325.006 104.87C325.639 104.203 326.372 103.683 327.206 103.31C328.039 102.93 328.929 102.74 329.876 102.74C330.829 102.74 331.722 102.93 332.556 103.31C333.389 103.683 334.122 104.203 334.756 104.87C335.389 105.537 335.882 106.31 336.236 107.19C336.596 108.063 336.776 109 336.776 110C336.776 111 336.596 111.94 336.236 112.82C335.882 113.693 335.389 114.463 334.756 115.13C334.122 115.797 333.389 116.32 332.556 116.7C331.722 117.073 330.829 117.26 329.876 117.26ZM329.876 115.58C330.602 115.58 331.279 115.433 331.906 115.14C332.539 114.847 333.092 114.443 333.566 113.93C334.046 113.41 334.419 112.817 334.686 112.15C334.959 111.477 335.096 110.76 335.096 110C335.096 109.24 334.959 108.523 334.686 107.85C334.412 107.17 334.036 106.577 333.556 106.07C333.082 105.557 332.529 105.153 331.896 104.86C331.269 104.567 330.596 104.42 329.876 104.42C329.149 104.42 328.469 104.567 327.836 104.86C327.209 105.153 326.656 105.56 326.176 106.08C325.702 106.593 325.329 107.187 325.056 107.86C324.789 108.527 324.656 109.24 324.656 110C324.656 110.767 324.792 111.487 325.066 112.16C325.339 112.833 325.712 113.427 326.186 113.94C326.666 114.453 327.219 114.857 327.846 115.15C328.479 115.437 329.156 115.58 329.876 115.58Z" fill="white"/>
<rect x="252" y="132" width="26" height="26" rx="3" fill="#02AD2E"/>
<rect x="282" y="132" width="26" height="26" rx="3" fill="#FFE203"/>
<rect x="312" y="132" width="26" height="26" rx="3" fill="#05D0ED"/>
<mask id="path-5-outside-1_160_35" maskUnits="userSpaceOnUse" x="6" y="70" width="223" height="89" fill="black">
<rect fill="white" x="6" y="70" width="223" height="89"/>
<path d="M8.056 158L17.464 90.8H59.608L57.976 102.512H27.544L25.624 116.144H49.768L48.136 127.856H23.992L21.4 146.288H51.832L50.2 158H8.056ZM35.8 85.52L41.56 71.696H53.272L43.576 85.52H35.8ZM74.206 158L75.646 147.536C77.95 145.968 80.686 144.032 83.854 141.728C87.054 139.392 90.334 136.88 93.694 134.192C97.086 131.472 100.254 128.752 103.198 126.032C106.174 123.312 108.638 120.72 110.59 118.256C112.542 115.792 113.63 113.68 113.854 111.92C114.142 109.968 113.918 108.192 113.182 106.592C112.446 104.96 111.358 103.664 109.918 102.704C108.478 101.744 106.782 101.264 104.83 101.264C102.878 101.264 101.022 101.744 99.262 102.704C97.534 103.664 96.078 104.96 94.894 106.592C93.71 108.192 92.974 109.968 92.686 111.92H80.974C81.582 107.696 83.134 103.904 85.63 100.544C88.158 97.152 91.246 94.48 94.894 92.528C98.574 90.544 102.43 89.552 106.462 89.552C110.558 89.552 114.142 90.56 117.214 92.576C120.318 94.56 122.638 97.248 124.174 100.64C125.71 104.032 126.174 107.792 125.566 111.92C125.278 114.096 124.574 116.288 123.454 118.496C122.366 120.704 120.942 122.928 119.182 125.168C117.422 127.408 115.39 129.68 113.086 131.984C110.814 134.256 108.334 136.592 105.646 138.992C102.99 141.36 100.19 143.792 97.246 146.288H121.102L119.47 158H74.206ZM125.21 158L126.65 147.536C128.954 145.968 131.69 144.032 134.858 141.728C138.058 139.392 141.338 136.88 144.698 134.192C148.09 131.472 151.258 128.752 154.202 126.032C157.178 123.312 159.642 120.72 161.594 118.256C163.546 115.792 164.634 113.68 164.858 111.92C165.146 109.968 164.922 108.192 164.186 106.592C163.45 104.96 162.362 103.664 160.922 102.704C159.482 101.744 157.786 101.264 155.834 101.264C153.882 101.264 152.026 101.744 150.266 102.704C148.538 103.664 147.082 104.96 145.898 106.592C144.714 108.192 143.978 109.968 143.69 111.92H131.978C132.586 107.696 134.138 103.904 136.634 100.544C139.162 97.152 142.25 94.48 145.898 92.528C149.578 90.544 153.434 89.552 157.466 89.552C161.562 89.552 165.146 90.56 168.218 92.576C171.322 94.56 173.642 97.248 175.178 100.64C176.714 104.032 177.178 107.792 176.57 111.92C176.282 114.096 175.578 116.288 174.458 118.496C173.37 120.704 171.946 122.928 170.186 125.168C168.426 127.408 166.394 129.68 164.09 131.984C161.818 134.256 159.338 136.592 156.65 138.992C153.994 141.36 151.194 143.792 148.25 146.288H172.106L170.474 158H125.21ZM176.213 158L177.653 147.536C179.957 145.968 182.693 144.032 185.862 141.728C189.062 139.392 192.342 136.88 195.701 134.192C199.094 131.472 202.262 128.752 205.206 126.032C208.182 123.312 210.646 120.72 212.597 118.256C214.55 115.792 215.638 113.68 215.862 111.92C216.15 109.968 215.926 108.192 215.19 106.592C214.454 104.96 213.366 103.664 211.925 102.704C210.486 101.744 208.79 101.264 206.837 101.264C204.885 101.264 203.03 101.744 201.269 102.704C199.542 103.664 198.086 104.96 196.902 106.592C195.718 108.192 194.982 109.968 194.694 111.92H182.981C183.589 107.696 185.141 103.904 187.638 100.544C190.166 97.152 193.254 94.48 196.902 92.528C200.581 90.544 204.438 89.552 208.47 89.552C212.566 89.552 216.15 90.56 219.222 92.576C222.326 94.56 224.646 97.248 226.181 100.64C227.718 104.032 228.182 107.792 227.574 111.92C227.286 114.096 226.582 116.288 225.462 118.496C224.374 120.704 222.95 122.928 221.19 125.168C219.43 127.408 217.398 129.68 215.094 131.984C212.822 134.256 210.342 136.592 207.654 138.992C204.998 141.36 202.198 143.792 199.253 146.288H223.11L221.478 158H176.213Z"/>
</mask>
<path d="M8.056 158L7.06566 157.861L6.90625 159H8.056V158ZM17.464 90.8V89.8H16.5942L16.4737 90.6613L17.464 90.8ZM59.608 90.8L60.5984 90.938L60.757 89.8H59.608V90.8ZM57.976 102.512V103.512H58.8463L58.9664 102.65L57.976 102.512ZM27.544 102.512V101.512H26.675L26.5538 102.373L27.544 102.512ZM25.624 116.144L24.6338 116.005L24.4733 117.144H25.624V116.144ZM49.768 116.144L50.7584 116.282L50.917 115.144H49.768V116.144ZM48.136 127.856V128.856H49.0063L49.1264 127.994L48.136 127.856ZM23.992 127.856V126.856H23.1228L23.0017 127.717L23.992 127.856ZM21.4 146.288L20.4097 146.149L20.2495 147.288H21.4V146.288ZM51.832 146.288L52.8224 146.426L52.981 145.288H51.832V146.288ZM50.2 158V159H51.0703L51.1904 158.138L50.2 158ZM35.8 85.52L34.8769 85.1354L34.3 86.52H35.8V85.52ZM41.56 71.696V70.696H40.8933L40.6369 71.3114L41.56 71.696ZM53.272 71.696L54.0907 72.2702L55.1948 70.696H53.272V71.696ZM43.576 85.52V86.52H44.0961L44.3947 86.0942L43.576 85.52ZM9.04634 158.139L18.4543 90.9386L16.4737 90.6613L7.06566 157.861L9.04634 158.139ZM17.464 91.8H59.608V89.8H17.464V91.8ZM58.6176 90.662L56.9856 102.374L58.9664 102.65L60.5984 90.938L58.6176 90.662ZM57.976 101.512H27.544V103.512H57.976V101.512ZM26.5538 102.373L24.6338 116.005L26.6142 116.283L28.5342 102.651L26.5538 102.373ZM25.624 117.144H49.768V115.144H25.624V117.144ZM48.7776 116.006L47.1456 127.718L49.1264 127.994L50.7584 116.282L48.7776 116.006ZM48.136 126.856H23.992V128.856H48.136V126.856ZM23.0017 127.717L20.4097 146.149L22.3903 146.427L24.9823 127.995L23.0017 127.717ZM21.4 147.288H51.832V145.288H21.4V147.288ZM50.8416 146.15L49.2096 157.862L51.1904 158.138L52.8224 146.426L50.8416 146.15ZM50.2 157H8.056V159H50.2V157ZM36.7231 85.9046L42.4831 72.0806L40.6369 71.3114L34.8769 85.1354L36.7231 85.9046ZM41.56 72.696H53.272V70.696H41.56V72.696ZM52.4533 71.1218L42.7573 84.9458L44.3947 86.0942L54.0907 72.2702L52.4533 71.1218ZM43.576 84.52H35.8V86.52H43.576V84.52ZM74.206 158L73.2153 157.864L73.059 159H74.206V158ZM75.646 147.536L75.0834 146.709L74.7159 146.959L74.6553 147.4L75.646 147.536ZM83.854 141.728L84.4422 142.537L84.4436 142.536L83.854 141.728ZM93.694 134.192L94.3187 134.973L94.3196 134.972L93.694 134.192ZM103.198 126.032L102.523 125.294L102.519 125.298L103.198 126.032ZM110.59 118.256L109.806 117.635L109.806 117.635L110.59 118.256ZM113.854 111.92L112.865 111.774L112.863 111.784L112.862 111.794L113.854 111.92ZM113.182 106.592L112.27 107.003L112.274 107.01L113.182 106.592ZM109.918 102.704L109.363 103.536L109.363 103.536L109.918 102.704ZM99.262 102.704L98.7831 101.826L98.7764 101.83L99.262 102.704ZM94.894 106.592L95.6979 107.187L95.7034 107.179L94.894 106.592ZM92.686 111.92V112.92H93.5493L93.6753 112.066L92.686 111.92ZM80.974 111.92L79.9842 111.778L79.8198 112.92H80.974V111.92ZM85.63 100.544L84.8282 99.9464L84.8273 99.9477L85.63 100.544ZM94.894 92.528L95.3658 93.4097L95.3686 93.4082L94.894 92.528ZM117.214 92.576L116.665 93.4121L116.675 93.4186L117.214 92.576ZM124.174 100.64L123.263 101.053L123.263 101.053L124.174 100.64ZM125.566 111.92L124.577 111.774L124.576 111.782L124.575 111.789L125.566 111.92ZM123.454 118.496L122.562 118.044L122.557 118.054L123.454 118.496ZM105.646 138.992L106.311 139.738L106.312 139.738L105.646 138.992ZM97.246 146.288L96.5993 145.525L94.5202 147.288H97.246V146.288ZM121.102 146.288L122.092 146.426L122.251 145.288H121.102V146.288ZM119.47 158V159H120.34L120.46 158.138L119.47 158ZM75.1967 158.136L76.6367 147.672L74.6553 147.4L73.2153 157.864L75.1967 158.136ZM76.2086 148.363C78.5239 146.787 81.2688 144.845 84.4422 142.537L83.2658 140.919C80.1032 143.219 77.3761 145.149 75.0834 146.709L76.2086 148.363ZM84.4436 142.536C87.6565 140.19 90.9482 137.669 94.3187 134.973L93.0693 133.411C89.7198 136.091 86.4515 138.594 83.2644 140.92L84.4436 142.536ZM94.3196 134.972C97.7283 132.239 100.914 129.504 103.877 126.766L102.519 125.298C99.5939 128 96.4437 130.705 93.0684 133.412L94.3196 134.972ZM103.873 126.77C106.878 124.024 109.381 121.393 111.374 118.877L109.806 117.635C107.895 120.047 105.47 122.6 102.523 125.294L103.873 126.77ZM111.374 118.877C113.363 116.366 114.587 114.078 114.846 112.046L112.862 111.794C112.673 113.282 111.721 115.218 109.806 117.635L111.374 118.877ZM114.843 112.066C115.156 109.946 114.917 107.971 114.09 106.174L112.274 107.01C112.919 108.413 113.128 109.99 112.865 111.774L114.843 112.066ZM114.094 106.181C113.283 104.384 112.074 102.94 110.473 101.872L109.363 103.536C110.642 104.388 111.609 105.536 112.27 107.003L114.094 106.181ZM110.473 101.872C108.848 100.789 106.953 100.264 104.83 100.264V102.264C106.611 102.264 108.108 102.699 109.363 103.536L110.473 101.872ZM104.83 100.264C102.706 100.264 100.686 100.788 98.7831 101.826L99.7409 103.582C101.358 102.7 103.05 102.264 104.83 102.264V100.264ZM98.7764 101.83C96.9182 102.862 95.3525 104.257 94.0846 106.005L95.7034 107.179C96.8035 105.663 98.1498 104.466 99.7476 103.578L98.7764 101.83ZM94.0902 105.997C92.8093 107.728 92.0089 109.658 91.6967 111.774L93.6753 112.066C93.9391 110.278 94.6107 108.656 95.6978 107.187L94.0902 105.997ZM92.686 110.92H80.974V112.92H92.686V110.92ZM81.9638 112.062C82.5486 108 84.0378 104.364 86.4327 101.14L84.8273 99.9477C82.2302 103.444 80.6154 107.392 79.9842 111.778L81.9638 112.062ZM86.4318 101.142C88.8741 97.8646 91.8503 95.2908 95.3658 93.4097L94.4222 91.6463C90.6417 93.6692 87.442 96.4393 84.8282 99.9464L86.4318 101.142ZM95.3686 93.4082C98.9083 91.4998 102.602 90.552 106.462 90.552V88.552C102.258 88.552 98.2397 89.5882 94.4194 91.6478L95.3686 93.4082ZM106.462 90.552C110.386 90.552 113.775 91.515 116.665 93.412L117.763 91.74C114.509 89.6049 110.73 88.552 106.462 88.552V90.552ZM116.675 93.4186C119.614 95.2971 121.806 97.8349 123.263 101.053L125.085 100.227C123.47 96.6611 121.022 93.8229 117.753 91.7334L116.675 93.4186ZM123.263 101.053C124.711 104.249 125.16 107.812 124.577 111.774L126.555 112.066C127.188 107.772 126.709 103.815 125.085 100.227L123.263 101.053ZM124.575 111.789C124.303 113.84 123.638 115.924 122.562 118.044L124.346 118.948C125.51 116.652 126.253 114.352 126.557 112.051L124.575 111.789ZM122.557 118.054C121.504 120.191 120.119 122.356 118.396 124.55L119.968 125.786C121.765 123.5 123.228 121.217 124.351 118.938L122.557 118.054ZM118.396 124.55C116.663 126.755 114.659 128.997 112.379 131.277L113.793 132.691C116.121 130.363 118.181 128.061 119.968 125.786L118.396 124.55ZM112.379 131.277C110.122 133.534 107.656 135.857 104.98 138.246L106.312 139.738C109.012 137.327 111.506 134.978 113.793 132.691L112.379 131.277ZM104.981 138.246C102.331 140.608 99.5375 143.034 96.5993 145.525L97.8927 147.051C100.842 144.55 103.649 142.112 106.311 139.738L104.981 138.246ZM97.246 147.288H121.102V145.288H97.246V147.288ZM120.112 146.15L118.48 157.862L120.46 158.138L122.092 146.426L120.112 146.15ZM119.47 157H74.206V159H119.47V157ZM125.21 158L124.219 157.864L124.063 159H125.21V158ZM126.65 147.536L126.087 146.709L125.72 146.959L125.659 147.4L126.65 147.536ZM134.858 141.728L135.446 142.537L135.447 142.536L134.858 141.728ZM144.698 134.192L145.322 134.973L145.323 134.972L144.698 134.192ZM154.202 126.032L153.527 125.294L153.523 125.298L154.202 126.032ZM161.594 118.256L160.81 117.635L160.81 117.635L161.594 118.256ZM164.858 111.92L163.868 111.774L163.867 111.784L163.866 111.794L164.858 111.92ZM164.186 106.592L163.274 107.003L163.277 107.01L164.186 106.592ZM160.922 102.704L160.367 103.536L160.367 103.536L160.922 102.704ZM150.266 102.704L149.787 101.826L149.78 101.83L150.266 102.704ZM145.898 106.592L146.702 107.187L146.707 107.179L145.898 106.592ZM143.69 111.92V112.92H144.553L144.679 112.066L143.69 111.92ZM131.978 111.92L130.988 111.778L130.824 112.92H131.978V111.92ZM136.634 100.544L135.832 99.9464L135.831 99.9477L136.634 100.544ZM145.898 92.528L146.37 93.4097L146.372 93.4082L145.898 92.528ZM168.218 92.576L167.669 93.4121L167.679 93.4186L168.218 92.576ZM175.178 100.64L174.267 101.053L174.267 101.053L175.178 100.64ZM176.57 111.92L175.58 111.774L175.579 111.782L175.578 111.789L176.57 111.92ZM174.458 118.496L173.566 118.044L173.561 118.054L174.458 118.496ZM156.65 138.992L157.315 139.738L157.316 139.738L156.65 138.992ZM148.25 146.288L147.603 145.525L145.524 147.288H148.25V146.288ZM172.106 146.288L173.096 146.426L173.255 145.288H172.106V146.288ZM170.474 158V159H171.344L171.464 158.138L170.474 158ZM126.2 158.136L127.64 147.672L125.659 147.4L124.219 157.864L126.2 158.136ZM127.212 148.363C129.528 146.787 132.273 144.845 135.446 142.537L134.27 140.919C131.107 143.219 128.38 145.149 126.087 146.709L127.212 148.363ZM135.447 142.536C138.66 140.19 141.952 137.669 145.322 134.973L144.073 133.411C140.724 136.091 137.455 138.594 134.268 140.92L135.447 142.536ZM145.323 134.972C148.732 132.239 151.918 129.504 154.88 126.766L153.523 125.298C150.598 128 147.447 130.705 144.072 133.412L145.323 134.972ZM154.876 126.77C157.881 124.024 160.385 121.393 162.378 118.877L160.81 117.635C158.899 120.047 156.474 122.6 153.527 125.294L154.876 126.77ZM162.378 118.877C164.367 116.366 165.591 114.078 165.85 112.046L163.866 111.794C163.676 113.282 162.724 115.218 160.81 117.635L162.378 118.877ZM165.847 112.066C166.16 109.946 165.921 107.971 165.094 106.174L163.277 107.01C163.923 108.413 164.132 109.99 163.868 111.774L165.847 112.066ZM165.097 106.181C164.287 104.384 163.078 102.94 161.476 101.872L160.367 103.536C161.645 104.388 162.612 105.536 163.274 107.003L165.097 106.181ZM161.476 101.872C159.852 100.789 157.957 100.264 155.834 100.264V102.264C157.614 102.264 159.112 102.699 160.367 103.536L161.476 101.872ZM155.834 100.264C153.71 100.264 151.69 100.788 149.787 101.826L150.745 103.582C152.362 102.7 154.054 102.264 155.834 102.264V100.264ZM149.78 101.83C147.922 102.862 146.356 104.257 145.088 106.005L146.707 107.179C147.807 105.663 149.154 104.466 150.751 103.578L149.78 101.83ZM145.094 105.997C143.813 107.728 143.013 109.658 142.7 111.774L144.679 112.066C144.943 110.278 145.614 108.656 146.702 107.187L145.094 105.997ZM143.69 110.92H131.978V112.92H143.69V110.92ZM132.968 112.062C133.552 108 135.042 104.364 137.436 101.14L135.831 99.9477C133.234 103.444 131.619 107.392 130.988 111.778L132.968 112.062ZM137.436 101.142C139.878 97.8646 142.854 95.2908 146.37 93.4097L145.426 91.6463C141.645 93.6692 138.446 96.4393 135.832 99.9464L137.436 101.142ZM146.372 93.4082C149.912 91.4998 153.606 90.552 157.466 90.552V88.552C153.262 88.552 149.243 89.5882 145.423 91.6478L146.372 93.4082ZM157.466 90.552C161.39 90.552 164.778 91.515 167.669 93.412L168.766 91.74C165.513 89.6049 161.734 88.552 157.466 88.552V90.552ZM167.679 93.4186C170.618 95.2971 172.81 97.8349 174.267 101.053L176.089 100.227C174.474 96.6611 172.025 93.8229 168.756 91.7334L167.679 93.4186ZM174.267 101.053C175.714 104.249 176.164 107.812 175.58 111.774L177.559 112.066C178.192 107.772 177.713 103.815 176.089 100.227L174.267 101.053ZM175.578 111.789C175.307 113.84 174.641 115.924 173.566 118.044L175.35 118.948C176.514 116.652 177.257 114.352 177.561 112.051L175.578 111.789ZM173.561 118.054C172.508 120.191 171.123 122.356 169.399 124.55L170.972 125.786C172.768 123.5 174.232 121.217 175.355 118.938L173.561 118.054ZM169.399 124.55C167.667 126.755 165.662 128.997 163.383 131.277L164.797 132.691C167.125 130.363 169.184 128.061 170.972 125.786L169.399 124.55ZM163.383 131.277C161.125 133.534 158.659 135.857 155.984 138.246L157.316 139.738C160.016 137.327 162.51 134.978 164.797 132.691L163.383 131.277ZM155.984 138.246C153.335 140.608 150.541 143.034 147.603 145.525L148.896 147.051C151.846 144.55 154.653 142.112 157.315 139.738L155.984 138.246ZM148.25 147.288H172.106V145.288H148.25V147.288ZM171.115 146.15L169.483 157.862L171.464 158.138L173.096 146.426L171.115 146.15ZM170.474 157H125.21V159H170.474V157ZM176.213 158L175.223 157.864L175.066 159H176.213V158ZM177.653 147.536L177.091 146.709L176.723 146.959L176.663 147.4L177.653 147.536ZM185.862 141.728L186.45 142.537L186.451 142.536L185.862 141.728ZM195.701 134.192L196.326 134.973L196.327 134.972L195.701 134.192ZM205.206 126.032L204.531 125.294L204.527 125.298L205.206 126.032ZM212.597 118.256L211.814 117.635L211.814 117.635L212.597 118.256ZM215.862 111.92L214.872 111.774L214.871 111.784L214.87 111.794L215.862 111.92ZM215.19 106.592L214.278 107.003L214.281 107.01L215.19 106.592ZM211.925 102.704L211.371 103.536L211.371 103.536L211.925 102.704ZM201.269 102.704L200.791 101.826L200.784 101.83L201.269 102.704ZM196.902 106.592L197.705 107.187L197.711 107.179L196.902 106.592ZM194.694 111.92V112.92H195.557L195.683 112.066L194.694 111.92ZM182.981 111.92L181.992 111.778L181.827 112.92H182.981V111.92ZM187.638 100.544L186.836 99.9464L186.835 99.9477L187.638 100.544ZM196.902 92.528L197.373 93.4097L197.376 93.4082L196.902 92.528ZM219.222 92.576L218.673 93.4121L218.683 93.4186L219.222 92.576ZM226.181 100.64L225.271 101.053L225.271 101.053L226.181 100.64ZM227.574 111.92L226.584 111.774L226.583 111.782L226.582 111.789L227.574 111.92ZM225.462 118.496L224.57 118.044L224.564 118.054L225.462 118.496ZM207.654 138.992L208.319 139.738L208.32 139.738L207.654 138.992ZM199.253 146.288L198.607 145.525L196.528 147.288H199.253V146.288ZM223.11 146.288L224.1 146.426L224.259 145.288H223.11V146.288ZM221.478 158V159H222.348L222.468 158.138L221.478 158ZM177.204 158.136L178.644 147.672L176.663 147.4L175.223 157.864L177.204 158.136ZM178.216 148.363C180.531 146.787 183.276 144.845 186.45 142.537L185.273 140.919C182.111 143.219 179.384 145.149 177.091 146.709L178.216 148.363ZM186.451 142.536C189.664 140.19 192.956 137.669 196.326 134.973L195.077 133.411C191.727 136.091 188.459 138.594 185.272 140.92L186.451 142.536ZM196.327 134.972C199.736 132.239 202.922 129.504 205.884 126.766L204.527 125.298C201.601 128 198.451 130.705 195.076 133.412L196.327 134.972ZM205.88 126.77C208.885 124.024 211.388 121.393 213.381 118.877L211.814 117.635C209.903 120.047 207.478 122.6 204.531 125.294L205.88 126.77ZM213.381 118.877C215.371 116.366 216.595 114.078 216.853 112.046L214.87 111.794C214.68 113.282 213.728 115.218 211.814 117.635L213.381 118.877ZM216.851 112.066C217.164 109.946 216.925 107.971 216.098 106.174L214.281 107.01C214.926 108.413 215.135 109.99 214.872 111.774L216.851 112.066ZM216.101 106.181C215.291 104.384 214.082 102.94 212.48 101.872L211.371 103.536C212.649 104.388 213.616 105.536 214.278 107.003L216.101 106.181ZM212.48 101.872C210.855 100.789 208.961 100.264 206.837 100.264V102.264C208.618 102.264 210.116 102.699 211.371 103.536L212.48 101.872ZM206.837 100.264C204.714 100.264 202.693 100.788 200.791 101.826L201.748 103.582C203.366 102.7 205.057 102.264 206.837 102.264V100.264ZM200.784 101.83C198.926 102.862 197.36 104.257 196.092 106.005L197.711 107.179C198.811 105.663 200.157 104.466 201.755 103.578L200.784 101.83ZM196.098 105.997C194.817 107.728 194.016 109.658 193.704 111.774L195.683 112.066C195.947 110.278 196.618 108.656 197.705 107.187L196.098 105.997ZM194.694 110.92H182.981V112.92H194.694V110.92ZM183.971 112.062C184.556 108 186.045 104.364 188.44 101.14L186.835 99.9477C184.238 103.444 182.623 107.392 181.992 111.778L183.971 112.062ZM188.439 101.142C190.882 97.8646 193.858 95.2908 197.373 93.4097L196.43 91.6463C192.649 93.6692 189.449 96.4393 186.836 99.9464L188.439 101.142ZM197.376 93.4082C200.916 91.4998 204.609 90.552 208.47 90.552V88.552C204.266 88.552 200.247 89.5882 196.427 91.6478L197.376 93.4082ZM208.47 90.552C212.394 90.552 215.782 91.515 218.673 93.412L219.77 91.74C216.517 89.6049 212.737 88.552 208.47 88.552V90.552ZM218.683 93.4186C221.622 95.2971 223.814 97.8349 225.271 101.053L227.092 100.227C225.477 96.6611 223.029 93.8229 219.76 91.7334L218.683 93.4186ZM225.271 101.053C226.718 104.249 227.168 107.812 226.584 111.774L228.563 112.066C229.195 107.772 228.717 103.815 227.092 100.227L225.271 101.053ZM226.582 111.789C226.311 113.84 225.645 115.924 224.57 118.044L226.353 118.948C227.518 116.652 228.26 114.352 228.565 112.051L226.582 111.789ZM224.564 118.054C223.512 120.191 222.127 122.356 220.403 124.55L221.976 125.786C223.772 123.5 225.235 121.217 226.359 118.938L224.564 118.054ZM220.403 124.55C218.671 126.755 216.666 128.997 214.386 131.277L215.801 132.691C218.129 130.363 220.188 128.061 221.976 125.786L220.403 124.55ZM214.386 131.277C212.129 133.534 209.663 135.857 206.987 138.246L208.32 139.738C211.02 137.327 213.514 134.978 215.801 132.691L214.386 131.277ZM206.988 138.246C204.339 140.608 201.545 143.034 198.607 145.525L199.9 147.051C202.85 144.55 205.656 142.112 208.319 139.738L206.988 138.246ZM199.253 147.288H223.11V145.288H199.253V147.288ZM222.119 146.15L220.487 157.862L222.468 158.138L224.1 146.426L222.119 146.15ZM221.478 157H176.213V159H221.478V157Z" fill="white" mask="url(#path-5-outside-1_160_35)"/>
<path d="M7.704 64L22.648 19.2H28.024L35.256 49.376L50.936 19.2H56.312L58.744 64H51.96L50.36 34.016L35.672 62.304H31.224L24.472 34.016L14.488 64H7.704ZM90.145 32H96.801L92.321 64H85.633L86.017 59.36C84.8437 61.0027 83.3823 62.3253 81.633 63.328C79.905 64.3307 77.953 64.832 75.777 64.832C73.4303 64.832 71.2863 64.3947 69.345 63.52C67.4037 62.624 65.761 61.3867 64.417 59.808C63.073 58.2293 62.1023 56.416 61.505 54.368C60.9077 52.2987 60.7797 50.08 61.121 47.712C61.441 45.4293 62.1663 43.2853 63.297 41.28C64.449 39.2533 65.8783 37.4827 67.585 35.968C69.313 34.4533 71.233 33.2693 73.345 32.416C75.4783 31.5413 77.6863 31.104 79.969 31.104C82.2943 31.104 84.2677 31.6373 85.889 32.704C87.5317 33.7493 88.8223 35.0933 89.761 36.736L90.145 32ZM76.513 58.4C78.3903 58.4 80.097 57.9413 81.633 57.024C83.169 56.0853 84.4383 54.8267 85.441 53.248C86.465 51.6693 87.105 49.92 87.361 48C87.6383 46.0587 87.489 44.2987 86.913 42.72C86.3583 41.1413 85.441 39.8933 84.161 38.976C82.881 38.0373 81.313 37.568 79.457 37.568C77.601 37.568 75.841 38.0373 74.177 38.976C72.513 39.9147 71.1157 41.1733 69.985 42.752C68.8757 44.3307 68.1823 46.08 67.905 48C67.649 49.9413 67.8623 51.7013 68.545 53.28C69.2277 54.8373 70.273 56.0853 71.681 57.024C73.089 57.9413 74.6997 58.4 76.513 58.4ZM117.665 54.912L123.169 58.144C121.42 60.1707 119.351 61.792 116.961 63.008C114.572 64.224 112.076 64.832 109.473 64.832C106.529 64.832 103.948 64.0747 101.729 62.56C99.5322 61.0453 97.8895 59.0187 96.8015 56.48C95.7348 53.92 95.4148 51.0933 95.8415 48C96.1615 45.6533 96.8762 43.4667 97.9855 41.44C99.1162 39.392 100.524 37.6 102.209 36.064C103.895 34.5067 105.761 33.2907 107.809 32.416C109.879 31.5413 112.012 31.104 114.209 31.104C116.812 31.104 119.137 31.712 121.185 32.928C123.255 34.144 124.876 35.776 126.049 37.824L119.617 41.056C118.892 39.9893 117.964 39.1787 116.833 38.624C115.724 38.048 114.54 37.76 113.281 37.76C111.511 37.76 109.857 38.24 108.321 39.2C106.785 40.1387 105.495 41.3867 104.449 42.944C103.404 44.48 102.753 46.1653 102.497 48C102.241 49.8133 102.412 51.4987 103.009 53.056C103.628 54.592 104.577 55.8293 105.857 56.768C107.159 57.7067 108.673 58.176 110.401 58.176C111.745 58.176 113.047 57.8773 114.305 57.28C115.585 56.6827 116.705 55.8933 117.665 54.912ZM156.422 43.936L153.606 64H146.95L149.542 45.568C149.755 44.1387 149.585 42.8373 149.03 41.664C148.497 40.4907 147.697 39.5627 146.63 38.88C145.563 38.176 144.315 37.824 142.886 37.824C141.457 37.824 140.102 38.176 138.822 38.88C137.563 39.5627 136.507 40.4907 135.654 41.664C134.801 42.8373 134.267 44.1387 134.054 45.568L131.462 64H124.806L131.526 16H138.182L135.494 35.392C136.774 34.0693 138.278 33.024 140.006 32.256C141.734 31.488 143.537 31.104 145.414 31.104C147.782 31.104 149.851 31.68 151.622 32.832C153.393 33.984 154.715 35.5307 155.59 37.472C156.486 39.4133 156.763 41.568 156.422 43.936ZM186.215 32H192.871L188.391 64H181.703L182.087 59.36C180.914 61.0027 179.452 62.3253 177.703 63.328C175.975 64.3307 174.023 64.832 171.847 64.832C169.5 64.832 167.356 64.3947 165.415 63.52C163.474 62.624 161.831 61.3867 160.487 59.808C159.143 58.2293 158.172 56.416 157.575 54.368C156.978 52.2987 156.85 50.08 157.191 47.712C157.511 45.4293 158.236 43.2853 159.367 41.28C160.519 39.2533 161.948 37.4827 163.655 35.968C165.383 34.4533 167.303 33.2693 169.415 32.416C171.548 31.5413 173.756 31.104 176.039 31.104C178.364 31.104 180.338 31.6373 181.959 32.704C183.602 33.7493 184.892 35.0933 185.831 36.736L186.215 32ZM172.583 58.4C174.46 58.4 176.167 57.9413 177.703 57.024C179.239 56.0853 180.508 54.8267 181.511 53.248C182.535 51.6693 183.175 49.92 183.431 48C183.708 46.0587 183.559 44.2987 182.983 42.72C182.428 41.1413 181.511 39.8933 180.231 38.976C178.951 38.0373 177.383 37.568 175.527 37.568C173.671 37.568 171.911 38.0373 170.247 38.976C168.583 39.9147 167.186 41.1733 166.055 42.752C164.946 44.3307 164.252 46.08 163.975 48C163.719 49.9413 163.932 51.7013 164.615 53.28C165.298 54.8373 166.343 56.0853 167.751 57.024C169.159 57.9413 170.77 58.4 172.583 58.4ZM223.239 16H229.896L223.175 64H216.519L217.191 59.296C215.89 60.96 214.322 62.304 212.487 63.328C210.674 64.3307 208.637 64.832 206.375 64.832C204.05 64.832 201.927 64.3947 200.007 63.52C198.109 62.6453 196.498 61.44 195.175 59.904C193.853 58.3467 192.893 56.5547 192.295 54.528C191.719 52.5013 191.591 50.3253 191.911 48C192.231 45.6747 192.967 43.4987 194.119 41.472C195.293 39.424 196.754 37.632 198.503 36.096C200.274 34.5387 202.237 33.3227 204.391 32.448C206.546 31.5733 208.786 31.136 211.111 31.136C213.373 31.136 215.271 31.648 216.807 32.672C218.343 33.6747 219.527 34.9973 220.359 36.64L223.239 16ZM207.335 58.4C209.213 58.4 210.919 57.9413 212.455 57.024C213.991 56.0853 215.261 54.8267 216.263 53.248C217.287 51.6693 217.927 49.92 218.183 48C218.461 46.0587 218.311 44.2987 217.735 42.72C217.181 41.1413 216.263 39.8933 214.983 38.976C213.703 38.0373 212.135 37.568 210.279 37.568C208.423 37.568 206.663 38.0373 204.999 38.976C203.335 39.9147 201.938 41.1733 200.807 42.752C199.698 44.3307 199.005 46.08 198.727 48C198.471 49.9413 198.685 51.7013 199.367 53.28C200.05 54.8373 201.095 56.0853 202.503 57.024C203.911 57.9413 205.522 58.4 207.335 58.4ZM232.761 32H239.417L234.937 64H228.281L232.761 32ZM236.793 27.36C235.791 27.36 234.991 27.0293 234.393 26.368C233.796 25.7067 233.572 24.8747 233.721 23.872C233.871 22.8907 234.329 22.0693 235.097 21.408C235.887 20.7253 236.772 20.384 237.753 20.384C238.735 20.384 239.524 20.7253 240.122 21.408C240.719 22.0693 240.943 22.8907 240.793 23.872C240.644 24.8747 240.185 25.7067 239.417 26.368C238.671 27.0293 237.796 27.36 236.793 27.36ZM271.4 43.936L268.584 64H261.928L264.52 45.568C264.733 44.1387 264.563 42.8373 264.008 41.664C263.475 40.4907 262.675 39.5627 261.608 38.88C260.541 38.176 259.293 37.824 257.864 37.824C256.435 37.824 255.08 38.176 253.8 38.88C252.541 39.5627 251.485 40.4907 250.632 41.664C249.779 42.8373 249.245 44.1387 249.032 45.568L246.44 64H239.784L244.264 32H250.92L250.472 35.392C251.752 34.0693 253.256 33.024 254.984 32.256C256.712 31.488 258.515 31.104 260.392 31.104C262.76 31.104 264.829 31.68 266.6 32.832C268.371 33.984 269.693 35.5307 270.568 37.472C271.464 39.4133 271.741 41.568 271.4 43.936ZM304.309 43.936L301.493 64H294.837L297.429 45.568C297.643 44.1387 297.472 42.8373 296.917 41.664C296.384 40.4907 295.584 39.5627 294.517 38.88C293.451 38.176 292.203 37.824 290.773 37.824C289.344 37.824 287.989 38.176 286.709 38.88C285.451 39.5627 284.395 40.4907 283.541 41.664C282.688 42.8373 282.155 44.1387 281.941 45.568L279.349 64H272.693L279.413 16H286.069L283.381 35.392C284.661 34.0693 286.165 33.024 287.893 32.256C289.621 31.488 291.424 31.104 293.301 31.104C295.669 31.104 297.739 31.68 299.509 32.832C301.28 33.984 302.603 35.5307 303.477 37.472C304.373 39.4133 304.651 41.568 304.309 43.936ZM318.678 64.832C315.734 64.832 313.153 64.0747 310.934 62.56C308.737 61.0453 307.094 59.0187 306.006 56.48C304.94 53.92 304.62 51.0933 305.046 48C305.366 45.6533 306.081 43.4667 307.19 41.44C308.321 39.392 309.729 37.6 311.414 36.064C313.1 34.5067 314.966 33.2907 317.014 32.416C319.084 31.5413 321.217 31.104 323.414 31.104C326.358 31.104 328.929 31.8613 331.126 33.376C333.345 34.8907 334.998 36.928 336.086 39.488C337.174 42.048 337.494 44.8853 337.046 48C336.726 50.3253 336.001 52.5013 334.87 54.528C333.761 56.5547 332.364 58.3467 330.678 59.904C328.993 61.44 327.126 62.6453 325.078 63.52C323.03 64.3947 320.897 64.832 318.678 64.832ZM319.606 58.176C321.377 58.176 323.03 57.7067 324.566 56.768C326.102 55.8293 327.393 54.592 328.438 53.056C329.505 51.4987 330.156 49.8133 330.39 48C330.646 46.144 330.465 44.4373 329.846 42.88C329.228 41.3227 328.278 40.0853 326.998 39.168C325.718 38.2293 324.214 37.76 322.486 37.76C320.737 37.76 319.084 38.2293 317.526 39.168C315.99 40.1067 314.7 41.3547 313.654 42.912C312.609 44.4693 311.958 46.1653 311.702 48C311.446 49.8987 311.628 51.616 312.246 53.152C312.886 54.688 313.846 55.9147 315.126 56.832C316.406 57.728 317.9 58.176 319.606 58.176Z" fill="white"/>
</svg>
